<svg id="Layer_1" data-name="Layer 1" xmlns="http://www.w3.org/2000/svg" viewBox="0 0 164.48 58.26"><defs><style>.cls-1{fill:#6cbe03;}</style></defs><path class="cls-1" d="M26.26,49c0,.74-.68,1.11-2.05,1.11a3.43,3.43,0,0,1-3-1.28,12.89,12.89,0,0,1-1.3-3,11.15,11.15,0,0,0-1.12-2.69c-.42-.47-1.49-.71-3.22-.71-3.52,0-5.75.25-6.69.73-.52.27-1.07,1.22-1.65,2.87A14.06,14.06,0,0,1,6,49a3.29,3.29,0,0,1-2.69,1c-1.26,0-1.89-.29-1.89-.88s1.27-4.68,3.81-12.29,3.86-11.54,4-11.77a16.21,16.21,0,0,1,2.26-3.87,4,4,0,0,1,2.5-.57,4.51,4.51,0,0,1,2.45.49q1.48,1.14,4.34,9.51T24,41q.48,2,1.35,4.84A24.26,24.26,0,0,1,26.26,49Zm-14-10.75h3.2c1.32,0,2-.19,2-.58v-.13q0-2.36-2.74-9.49c-.35-.91-.59-1.36-.71-1.36a6.27,6.27,0,0,0-.72,1.44Q10,35.69,10,37.75,10,38.29,12.21,38.29Z" transform="translate(-1.38 -1)"/><path class="cls-1" d="M47,49.9q0,6.69-5.86,8.65a13.47,13.47,0,0,1-4.34.71h-.61a12.11,12.11,0,0,1-4.44-.82c-1.42-.55-2.13-1.18-2.13-1.87a3.05,3.05,0,0,1,.5-1.77,1.63,1.63,0,0,1,1.45-.72c.15,0,.81.12,2,.35a16.11,16.11,0,0,0,3.23.36,5,5,0,0,0,3.73-1.15,4.76,4.76,0,0,0,1.1-3.43c0-.5-.14-.75-.43-.75l-1.53.46a10.58,10.58,0,0,1-3,.37,8.82,8.82,0,0,1-3.35-.67,7.37,7.37,0,0,1-2.75-1.83c-1.47-1.58-2.2-4-2.2-7.16V39.34a14.54,14.54,0,0,1,.62-4.2A9.91,9.91,0,0,1,30.37,32a6.24,6.24,0,0,1,5.31-2.3h.56a9.42,9.42,0,0,1,2.7.46l1.05.33a9.68,9.68,0,0,0,1.56.42,5.53,5.53,0,0,0,1.16-.3,6.38,6.38,0,0,1,2-.31,1.77,1.77,0,0,1,2,1.59c0,.32.08,1.79.08,4.41v6.26l0,.58v1.17L47,49.33ZM33,41.62a6.51,6.51,0,0,0,1.15,4,3.83,3.83,0,0,0,3.24,1.53h.4a4.29,4.29,0,0,0,3.34-1.42,4.37,4.37,0,0,0,.78-3,6,6,0,0,0,0-.61l0-1V39.57l0-.21V39a6,6,0,0,1,0-.6A5.48,5.48,0,0,0,41,34.82a3.61,3.61,0,0,0-2.91-1.09h-.42a4.29,4.29,0,0,0-3.45,1.49,6.16,6.16,0,0,0-1.25,4.08l0,.41v.86Q33,41.2,33,41.62Z" transform="translate(-1.38 -1)"/><path class="cls-1" d="M51.22,32.35v-.64a2.56,2.56,0,0,1,.52-1.78,2.09,2.09,0,0,1,1.64-.56h.31a4,4,0,0,1,2.2.75,3.06,3.06,0,0,1,.73.72c.25.33.43.49.53.49a2.7,2.7,0,0,0,.88-.52,9.54,9.54,0,0,1,1.64-.95,5.37,5.37,0,0,1,2.3-.43A3,3,0,0,1,64,30a1.62,1.62,0,0,1,.65,1.13,3.11,3.11,0,0,1-1,2.41,3.31,3.31,0,0,1-2,.39,6.31,6.31,0,0,0-2.6.46,3.36,3.36,0,0,0-1.56,1.67q-.59,1.2-.59,6.9c0,3.79-.15,6-.45,6.49s-1.15.79-2.56.79h-.36l-.35,0c-.78,0-1.28-.12-1.49-.38a5.34,5.34,0,0,1-.31-2.44l.19-3.87,0-1.07V40.66l0-1.09v-.73l0-1.07v-.71l0-1.07a18,18,0,0,0-.16-2.1C51.28,33.08,51.22,32.56,51.22,32.35Z" transform="translate(-1.38 -1)"/><path class="cls-1" d="M70,50.38h-.55q-1.52,0-1.86-.42A4.07,4.07,0,0,1,67,47.53a23.83,23.83,0,0,1,.18-3.09c.12-.91.17-1.44.17-1.59l0-.54v-.55l0-.54V38.44l0-.84V36.49l0-.83v-.55l0-.54-.55-3.34v-.51c0-.67.14-1.08.43-1.25a4,4,0,0,1,1.77-.25h.81c1.31,0,2.09.36,2.32,1.09a36.73,36.73,0,0,1,.19,5.49q0,4.94.06,5.7c0,.51.17,1.33.37,2.45a15.84,15.84,0,0,1,.3,2.31l.05.52v.77c0,1.29-.2,2.08-.59,2.38A4.8,4.8,0,0,1,70,50.38ZM67.25,22a1.45,1.45,0,0,1,.51-1,2.07,2.07,0,0,1,1.52-.51l.56-.06h.48l.11,0,.65.06.18,0c1,0,1.51.56,1.51,1.67l.06.59v.48l0,.4-.06.46c0,1.11-.92,1.67-2.76,1.67h-.19l-.11,0-.73-.06-.19,0a1.32,1.32,0,0,1-1.48-1.5,1.55,1.55,0,0,1,0-.29l0-.38v-.79A3.47,3.47,0,0,0,67.25,22Z" transform="translate(-1.38 -1)"/><path d="M96.09,38.65v1.46a14.15,14.15,0,0,1-.68,4.33A8.25,8.25,0,0,1,90.52,50a9.88,9.88,0,0,1-4.09.84H85.32a8.73,8.73,0,0,1-6.88-3q-2.3-2.62-2.29-7.3V39a12.55,12.55,0,0,1,.72-4.32,9.28,9.28,0,0,1,1.94-3.27,8.2,8.2,0,0,1,3.16-2,12,12,0,0,1,4.23-.71l.38,0a10.57,10.57,0,0,1,3.74.67,8.32,8.32,0,0,1,5.1,5.16A11.6,11.6,0,0,1,96.09,38.65ZM85.57,46.78h.86A3.78,3.78,0,0,0,89.84,45,8.71,8.71,0,0,0,91,40.3V39.19a8.18,8.18,0,0,0-1.2-4.75,3.87,3.87,0,0,0-3.34-1.73H85.8a4,4,0,0,0-3.31,1.62A7.51,7.51,0,0,0,81.25,39v1.34A8.52,8.52,0,0,0,82.39,45,3.59,3.59,0,0,0,85.57,46.78Z" transform="translate(-1.38 -1)"/><path d="M111.09,35.74q0-3.08-3.87-3.07a14.88,14.88,0,0,0-3.54.54,15.7,15.7,0,0,1-2.69.55,1.34,1.34,0,0,1-1-.57,2.17,2.17,0,0,1-.47-1.42,2.45,2.45,0,0,1,1.67-2.2,13.09,13.09,0,0,1,5.65-1.1h.52c3.58,0,6.13,1,7.65,3.05a6.24,6.24,0,0,1,1.15,2.79,39.43,39.43,0,0,1,.27,5.62,39.43,39.43,0,0,0,.27,5.62,15.82,15.82,0,0,1,.28,2.68,2.38,2.38,0,0,1-.42,1.57,2.38,2.38,0,0,1-1.8.49,4.59,4.59,0,0,1-1.9-.27,4.3,4.3,0,0,1-1-.69,1.24,1.24,0,0,0-.73-.42,16,16,0,0,0-2.4.85,10.15,10.15,0,0,1-3.68.85h-.5a6.18,6.18,0,0,1-4.73-1.83,6.25,6.25,0,0,1-1.71-4.42v-1a5.23,5.23,0,0,1,.67-2.49c1.22-2.31,4.26-3.56,9.09-3.76a11.49,11.49,0,0,0,2.87-.3C111,36.64,111.09,36.3,111.09,35.74Zm-7.59,8.41a2.08,2.08,0,0,0,1.07,1.77,4,4,0,0,0,2.3.71h.61a4,4,0,0,0,3.3-1.52,4.8,4.8,0,0,0,.52-2.72l0-.25v-.52c0-.88-.46-1.32-1.4-1.32h-1.69a6.76,6.76,0,0,0-3.54.77A2.24,2.24,0,0,0,103.46,43v.77A2.82,2.82,0,0,1,103.5,44.15Z" transform="translate(-1.38 -1)"/><path d="M120.26,34.76q0-3.81,4.33-5.37A9.5,9.5,0,0,1,128,28.8h.56a15.2,15.2,0,0,1,5,.76c1.47.51,2.2,1.15,2.2,1.92a2.57,2.57,0,0,1-.47,1.56c-.31.45-.63.67-.94.67a14,14,0,0,1-2.44-.52,13.75,13.75,0,0,0-3.52-.52,4.51,4.51,0,0,0-2.41.54,1.76,1.76,0,0,0-.86,1.57,2.14,2.14,0,0,0,1.34,1.78,12.13,12.13,0,0,0,2.11.77q4.56,1.34,6.26,2.81A4.88,4.88,0,0,1,136.5,44v.55A5.7,5.7,0,0,1,134.25,49a8.86,8.86,0,0,1-5.44,1.65h-1.15a14.49,14.49,0,0,1-5.31-.92c-1.56-.61-2.34-1.31-2.34-2.09a2.73,2.73,0,0,1,.81-2,1.52,1.52,0,0,1,1.05-.29s.89.24,2.51.71a15.17,15.17,0,0,0,4.14.71c2.09,0,3.14-.88,3.14-2.63,0-.63-.53-1.19-1.57-1.7q-.69-.33-3.66-1.26a13,13,0,0,1-4.09-1.84,5.53,5.53,0,0,1-1.6-2A6.34,6.34,0,0,1,120.26,34.76Z" transform="translate(-1.38 -1)"/><path d="M142.75,50.38h-.55q-1.53,0-1.86-.42a4.07,4.07,0,0,1-.54-2.43,23.83,23.83,0,0,1,.18-3.09c.11-.91.17-1.44.17-1.59l0-.54v-.55l0-.54V38.44l0-.84V36.49l0-.83v-.55l0-.54-.54-3.34v-.51c0-.67.14-1.08.43-1.25a4,4,0,0,1,1.77-.25h.81c1.31,0,2.09.36,2.32,1.09a36.73,36.73,0,0,1,.19,5.49q0,4.94.06,5.7c0,.51.17,1.33.37,2.45a15.84,15.84,0,0,1,.3,2.31l0,.52v.77c0,1.29-.19,2.08-.58,2.38A4.83,4.83,0,0,1,142.75,50.38ZM140,22a1.45,1.45,0,0,1,.51-1,2.07,2.07,0,0,1,1.52-.51l.56-.06h.48l.11,0,.64.06.19,0c1,0,1.51.56,1.51,1.67l.06.59v.48l0,.4-.06.46c0,1.11-.92,1.67-2.76,1.67h-.19l-.11,0-.73-.06-.19,0a1.32,1.32,0,0,1-1.48-1.5,1.55,1.55,0,0,1,0-.29l0-.38v-.79A3.47,3.47,0,0,0,140,22Z" transform="translate(-1.38 -1)"/><path d="M149.61,34.76c0-2.54,1.45-4.33,4.33-5.37a9.5,9.5,0,0,1,3.39-.59h.56a15.16,15.16,0,0,1,5,.76c1.47.51,2.2,1.15,2.2,1.92a2.57,2.57,0,0,1-.47,1.56c-.31.45-.62.67-.94.67a14,14,0,0,1-2.43-.52,13.81,13.81,0,0,0-3.52-.52,4.54,4.54,0,0,0-2.42.54,1.76,1.76,0,0,0-.86,1.57,2.14,2.14,0,0,0,1.34,1.78,12.47,12.47,0,0,0,2.11.77,17.86,17.86,0,0,1,6.27,2.81,4.91,4.91,0,0,1,1.7,3.88v.55A5.75,5.75,0,0,1,163.6,49a8.85,8.85,0,0,1-5.43,1.65H157a14.53,14.53,0,0,1-5.31-.92c-1.56-.61-2.34-1.31-2.34-2.09a2.7,2.7,0,0,1,.82-2,1.47,1.47,0,0,1,1-.29c.06,0,.9.24,2.51.71a15.29,15.29,0,0,0,4.14.71c2.09,0,3.14-.88,3.14-2.63,0-.63-.52-1.19-1.57-1.7q-.69-.33-3.66-1.26a13.15,13.15,0,0,1-4.09-1.84,5.75,5.75,0,0,1-1.6-2A6.34,6.34,0,0,1,149.61,34.76Z" transform="translate(-1.38 -1)"/><path class="cls-1" d="M48.59,1.16c-.41.33-.46.64-.39,2.81.15,4.93.72,8.3,1.9,11.16,1.75,4.24,4.57,6.16,9.09,6.17a11.62,11.62,0,0,0,4.86-1,4.65,4.65,0,0,1,.71-.28,31.4,31.4,0,0,1,1.74,4.53,55.46,55.46,0,0,1,2,14.39,13.55,13.55,0,0,0,.09,1.9,1,1,0,0,0,1.64.52c.32-.33.37-.57.37-1.75s.2-3.6.38-4.94a29.56,29.56,0,0,1,3.63-10.9,7.5,7.5,0,0,1,.42-.69,2.9,2.9,0,0,1,.53.38,8.35,8.35,0,0,0,1.38.83,10.79,10.79,0,0,0,5,1c3.3,0,5.66-1,7.36-3.1,2.32-2.89,3.47-7.37,3.66-14.27.09-3.13.26-3-3.09-2.9a35.45,35.45,0,0,0-8.39,1c-4.28,1.09-6.94,3-8.1,5.84-.72,1.76-1,4.89-.49,5.6A1,1,0,0,0,74,17.8a5,5,0,0,0,1-.9,24.3,24.3,0,0,1,6.7-5.08c.89-.46,1-.51,1.39-.47a1,1,0,0,1,.92.93c0,.54-.2.75-1.23,1.27a23.18,23.18,0,0,0-6.45,4.63,25.4,25.4,0,0,0-6.15,10.61c-.37,1.26-.33,1.3-.68-.62a33.23,33.23,0,0,0-4.83-12.51,23.2,23.2,0,0,0-6-6.11c-.93-.65-1.26-1-1.26-1.43a1,1,0,0,1,.8-1c.28-.09.64.09,1.78.9a20.69,20.69,0,0,1,5.92,6,8.05,8.05,0,0,0,.85,1.11,1,1,0,0,0,1.22,0c.34-.28.42-.58.55-2a10.66,10.66,0,0,0-1.71-7c-1.32-1.75-3.88-3.18-7.09-4a36,36,0,0,0-8.41-1C48.87,1,48.82,1,48.59,1.16Z" transform="translate(-1.38 -1)"/></svg>